<?xml version="1.0" standalone="no"?><!DOCTYPE svg PUBLIC "-//W3C//DTD SVG 1.1//EN" "http://www.w3.org/Graphics/SVG/1.1/DTD/svg11.dtd"><svg t="1565972873461" class="icon" viewBox="0 0 1024 1024" version="1.1" xmlns="http://www.w3.org/2000/svg" p-id="662" xmlns:xlink="http://www.w3.org/1999/xlink" width="200" height="200"><defs><style type="text/css"></style></defs><path d="M556.4399616 1012.33677653c-67.50426453 0-133.0774016-13.2513792-194.78828373-39.34344533-59.63994453-25.23572907-113.05833813-61.29363627-159.03184214-107.26495573-45.96913493-45.96913493-82.00301227-99.53389227-107.2627712-159.0296576-26.08769707-61.69340587-39.33907627-127.28183467-39.33907626-194.7860992s13.2513792-133.0774016 39.33907626-194.78828374c25.25975893-59.63994453 61.29363627-113.05833813 107.2627712-159.03184213 45.973504-45.96913493 99.3984512-82.13408427 159.03184214-107.2627712 61.70432853-26.08769707 127.2840192-39.33907627 194.78828373-39.33907627 57.42701227 0 113.6132096 9.6600064 167.313408 28.57588054 51.90669653 18.36100267 100.08439467 45.1411968 143.294464 79.37283413 4.4171264 3.58918827 5.24506453 10.07725227 1.65587627 14.49437867-3.61540267 4.4171264-10.10346667 5.24506453-14.52059307 1.65369173-85.2885504-67.63752107-188.31332693-103.52940373-297.62955947-103.52940373C292.061184 32.05802667 76.84532907 247.2738816 76.84532907 511.77280853c0 264.503296 215.21585493 479.71915093 479.7169664 479.71915094 5.6492032 0 10.3415808 4.6923776 10.3415808 10.35250346 0.0131072 5.66667947-4.8037888 10.4923136-10.46391467 10.4923136z" p-id="663"></path><path d="M560.234496 141.1186688c-204.12279467 0-369.59464107 165.4718464-369.59464107 369.59464107S356.11170133 880.31013547 560.234496 880.31013547c204.1249792 0 369.5968256-165.4718464 369.5968256-369.5968256S764.3529216 141.1186688 560.234496 141.1186688z m24.28327253 411.85225387v150.02282666H537.64642133v-150.02282666L401.15022507 348.8284672h57.0097664l69.8155008 106.77562027a1071.05047893 1071.05047893 0 0 1 35.9989248 59.91738026c10.6299392-18.5204736 23.50994773-39.37839787 38.6531328-62.57595733l68.6096384-104.11922773h54.59585706l-141.3152768 204.14464z" p-id="664"></path></svg>